<?xml version="1.0" encoding="UTF-8" standalone="no"?>
<!-- Created with Inkscape (http://www.inkscape.org/) -->

<svg
   width="114.27499mm"
   height="41.393761mm"
   viewBox="0 0 114.27499 41.393761"
   version="1.1"
   id="svg1"
   inkscape:version="1.3.2 (091e20ef0f, 2023-11-25, custom)"
   sodipodi:docname="exspy-banner-light.svg"
   xmlns:inkscape="http://www.inkscape.org/namespaces/inkscape"
   xmlns:sodipodi="http://sodipodi.sourceforge.net/DTD/sodipodi-0.dtd"
   xmlns="http://www.w3.org/2000/svg"
   xmlns:svg="http://www.w3.org/2000/svg">
  <sodipodi:namedview
     id="namedview1"
     pagecolor="#ffffff"
     bordercolor="#666666"
     borderopacity="1.0"
     inkscape:showpageshadow="2"
     inkscape:pageopacity="0.0"
     inkscape:pagecheckerboard="0"
     inkscape:deskcolor="#d1d1d1"
     inkscape:document-units="mm"
     inkscape:zoom="0.69486532"
     inkscape:cx="47.491217"
     inkscape:cy="156.86493"
     inkscape:window-width="1680"
     inkscape:window-height="1026"
     inkscape:window-x="1920"
     inkscape:window-y="0"
     inkscape:window-maximized="1"
     inkscape:current-layer="layer1" />
  <defs
     id="defs1" />
  <g
     inkscape:label="Layer 1"
     inkscape:groupmode="layer"
     id="layer1"
     transform="translate(-92.604163,-106.89168)">
    <path
       style="color:#000000;fill:#bf3844;-inkscape-stroke:none"
       d="m 183.65684,130.56093 c -1.75234,1.41714 -3.08059,3.02155 -3.84245,4.64031 -0.80828,1.71743 -0.97613,3.49141 -0.2217,4.98247 0.0137,0.0271 0.0277,0.0544 0.0419,0.0816 l 0.66368,-1.33998 c -0.22233,-0.96325 -0.0452,-2.07192 0.5122,-3.25615 0.63744,-1.3544 1.77347,-2.77425 3.29979,-4.05664 z m 10.60609,-3.22333 c 2.9799,-0.21126 5.26775,0.64934 6.11726,2.3283 0.71001,1.40327 0.37965,3.25619 -0.89247,5.17959 -1.27211,1.92341 -3.46751,3.85143 -6.26217,5.26545 -3.35958,1.69985 -6.80746,2.24764 -9.27505,1.76658 l -0.50916,1.01566 c 2.84359,0.66364 6.61286,0.0547 10.28065,-1.80107 2.94583,-1.49051 5.27825,-3.51626 6.68315,-5.64043 1.40491,-2.12417 1.90167,-4.41361 0.95621,-6.28222 -1.05674,-2.08855 -3.56727,-3.03189 -6.53947,-2.96 l -0.79128,1.14605 z"
       id="path1-6-5-6-0"
       sodipodi:nodetypes="cssccscccsssccsssccc" />
    <path
       style="font-size:36.6889px;line-height:1.25;font-family:Nunito;-inkscape-font-specification:'Nunito Italic';stroke-width:0.264583"
       d="m 101.7397,133.41776 q -4.219225,0 -6.677381,-2.45816 -2.458156,-2.49485 -2.458156,-6.75076 0,-2.75167 1.100667,-4.84293 1.100667,-2.12796 3.00849,-3.26532 1.944511,-1.17404 4.47605,-1.17404 3.6322,0 5.68677,2.34809 2.05458,2.3114 2.05458,6.38387 0,1.13735 -1.28411,1.13735 H 95.502586 q 0.146755,3.04518 1.761067,4.65949 1.614312,1.57763 4.476047,1.57763 1.21073,0 2.45816,-0.29351 1.24742,-0.3302 2.42146,-1.13736 0.84385,-0.55033 1.39418,-0.22013 0.58702,0.3302 0.58702,1.02729 0.0367,0.6604 -0.73377,1.17404 -1.21074,0.88053 -2.89843,1.35749 -1.651,0.47696 -3.22862,0.47696 z m -0.47696,-16.28988 q -2.531531,0 -3.999087,1.57763 -1.467556,1.57762 -1.724378,4.14584 H 106.3625 q -0.11007,-2.71498 -1.43087,-4.21922 -1.28411,-1.50425 -3.66889,-1.50425 z m 12.03395,16.2165 q -0.91722,0 -1.3208,-0.6604 -0.36689,-0.69709 0.22013,-1.43087 l 8.43845,-11.37356 -7.9248,-10.74985 q -0.62372,-0.80715 -0.25683,-1.46755 0.40358,-0.69709 1.24743,-0.69709 0.91722,0 1.651,0.9906 l 7.04427,9.64918 7.00757,-9.64918 q 0.69709,-0.9906 1.61432,-0.9906 0.88053,0 1.24742,0.69709 0.40358,0.6604 -0.22013,1.46755 l -7.9615,10.74985 8.47514,11.37356 q 0.55033,0.73378 0.18344,1.43087 -0.36688,0.6604 -1.28411,0.6604 -0.91722,0 -1.651,-0.9906 l -7.44784,-10.19952 -7.44785,10.19952 q -0.69709,0.9906 -1.61431,0.9906 z m 32.17614,0.0734 q -2.6416,0 -4.98969,-0.62372 -2.3114,-0.6604 -3.99909,-1.90782 -0.58702,-0.40358 -0.69709,-0.95391 -0.11007,-0.55033 0.11007,-1.02729 0.25682,-0.47696 0.73377,-0.62371 0.47696,-0.18345 1.10067,0.22013 1.651,1.21074 3.52213,1.72438 1.87114,0.51365 4.21923,0.51365 3.302,0 4.87962,-1.21074 1.61431,-1.24742 1.61431,-3.26531 0,-1.61431 -1.17404,-2.56822 -1.13736,-0.95391 -3.85234,-1.50425 l -3.81564,-0.77047 q -3.44876,-0.73377 -5.17314,-2.38477 -1.68769,-1.68769 -1.68769,-4.47605 0,-2.3114 1.17405,-4.03578 1.21073,-1.72438 3.33869,-2.67829 2.12796,-0.95391 4.91631,-0.95391 2.3114,0 4.2926,0.6604 2.01789,0.62371 3.6322,1.90782 0.51365,0.40358 0.58703,0.95391 0.11006,0.51365 -0.14676,0.95392 -0.25682,0.44026 -0.73378,0.58702 -0.47695,0.11007 -1.13735,-0.29351 -1.46756,-1.13736 -3.08187,-1.61431 -1.57762,-0.47696 -3.44876,-0.47696 -2.89842,0 -4.6228,1.35749 -1.72438,1.3208 -1.72438,3.52213 0,1.76107 1.06398,2.78836 1.10067,1.02729 3.55882,1.50425 l 3.81565,0.80715 q 3.70558,0.77047 5.46665,2.34809 1.79775,1.54093 1.79775,4.21922 0,2.16465 -1.17404,3.81565 -1.13736,1.651 -3.302,2.56822 -2.12796,0.91723 -5.06307,0.91723 z m 15.26257,6.53062 q -1.46755,0 -1.46755,-1.50425 v -21.93996 q 0,-1.50424 1.43087,-1.50424 1.50424,0 1.50424,1.50424 v 1.90782 q 0.77047,-1.61431 2.38478,-2.53153 1.61431,-0.95391 3.70558,-0.95391 2.38478,0 4.14584,1.13736 1.79776,1.10066 2.75167,3.19193 0.9906,2.05458 0.9906,4.91631 0,2.82505 -0.9906,4.91631 -0.95391,2.05458 -2.75167,3.19194 -1.76106,1.13736 -4.14584,1.13736 -2.05458,0 -3.66889,-0.91723 -1.61431,-0.91722 -2.38478,-2.53153 v 8.47513 q 0,1.50425 -1.50425,1.50425 z m 6.93421,-8.9154 q 2.49484,0 3.99909,-1.76107 1.50424,-1.79776 1.50424,-5.09976 0,-3.33869 -1.50424,-5.09975 -1.50425,-1.76107 -3.99909,-1.76107 -2.49485,0 -3.99909,1.76107 -1.50425,1.76106 -1.50425,5.09975 0,3.302 1.50425,5.09976 1.50424,1.76107 3.99909,1.76107 z"
       id="text4-3-8-3-7"
       aria-label="eXSp" />
    <g
       id="g3-6-6-0"
       transform="rotate(12.252226,524.61258,225.22244)"
       inkscape:transform-center-x="-0.94996498"
       inkscape:transform-center-y="-0.066505451">
      <path
         class="cls-3"
         d="m 139.10715,192.58632 c -0.38365,1.15094 -3.41833,1.21416 -4.1671,0.90195 -0.38894,-0.1614 -1.29739,-1.39284 -2.02764,-1.39284 -0.45773,0 -0.58653,-0.3399 -0.96489,-0.28699 v -0.95779 c 0.41011,-0.0291 1.16152,-0.77787 1.28852,-0.79375 1.56369,-0.0688 2.57513,-0.66111 3.33977,-0.31715 0.76465,0.34396 2.89646,1.72738 2.53134,2.84657 z"
         id="path14-8-4-2-2"
         style="fill:#010101;stroke:#000000;stroke-width:0.264583"
         sodipodi:nodetypes="ccscccsc" />
      <line
         class="cls-4"
         x1="138.4827"
         y1="192.20264"
         x2="140.0464"
         y2="192.68683"
         id="line14-0-3-9-3"
         style="fill:none;stroke:#010101;stroke-width:0.767292px;stroke-linecap:round;stroke-miterlimit:10" />
      <line
         class="cls-4"
         x1="141.6339"
         y1="191.77138"
         x2="140.0464"
         y2="192.68683"
         id="line15-2-3-1-7"
         style="fill:none;stroke:#010101;stroke-width:0.767292px;stroke-linecap:round;stroke-miterlimit:10" />
      <line
         class="cls-4"
         x1="141.00154"
         y1="194.26639"
         x2="140.08609"
         y2="192.68153"
         id="line16-1-3-2-5"
         style="fill:none;stroke:#010101;stroke-width:0.767292px;stroke-linecap:round;stroke-miterlimit:10" />
    </g>
    <ellipse
       style="fill:#4584bc;fill-opacity:0.870588;stroke-width:2.26743;stroke-dasharray:none"
       id="path1-6-8-8-1-4-3-8"
       cx="109.38022"
       cy="206.2787"
       rx="2.153666"
       ry="1.2275143"
       transform="rotate(-26.83808)" />
    <path
       style="fill:none;stroke:#000000;stroke-width:2.8;stroke-linecap:round;stroke-linejoin:miter;stroke-dasharray:none;stroke-opacity:1"
       d="m 186.22093,132.12533 -7.33276,14.76011"
       id="path3-5-8-6-9-0"
       sodipodi:nodetypes="cc" />
    <path
       style="fill:none;stroke:#000000;stroke-width:2.8;stroke-linecap:round;stroke-linejoin:miter;stroke-dasharray:none;stroke-opacity:1"
       d="m 186.55384,131.25024 -7.11561,-16.54652"
       id="path2-0-8-6-61"
       sodipodi:nodetypes="cc" />
    <path
       style="fill:none;stroke:#000000;stroke-width:2.6;stroke-linecap:round;stroke-linejoin:miter;stroke-dasharray:none;stroke-opacity:1"
       d="m 196.19291,114.35675 c 0,0 -2.16293,-0.0995 -2.48922,0.55285 -0.65211,1.30369 2.75273,3.33944 2.10053,4.64309 -0.65279,1.30478 -4.32641,-0.19945 -4.97928,1.10529 -0.6522,1.30342 2.75199,3.33931 2.09968,4.64267 -0.65296,1.30493 -4.32695,-0.19997 -4.98011,1.10487 -0.65212,1.30322 2.753,3.34005 2.09885,4.64224 -0.32838,0.65365 -2.4976,0.54868 -2.4976,0.54868"
       id="path1-2"
       sodipodi:nodetypes="cssssssc" />
    <path
       style="color:#000000;fill:#109345;-inkscape-stroke:none"
       d="m 192.50311,130.87115 c 0.6907,-0.0538 1.31604,-3e-4 1.82597,0.1469 0.68101,0.19659 1.14167,0.53889 1.38055,1.01102 0.34517,0.68218 0.19338,1.61537 -0.47749,2.62969 -0.67086,1.01432 -1.8441,2.05159 -3.34337,2.81017 -1.30155,0.65855 -2.62543,0.99683 -3.74752,1.03371 -0.94938,0.0312 -1.73957,-0.15898 -2.26779,-0.49898 l -0.45009,0.90043 c 0.74271,0.44965 1.70254,0.6321 2.7506,0.59765 1.29476,-0.0426 2.74542,-0.42161 4.16627,-1.14052 1.6367,-0.82812 2.93538,-1.95408 3.72695,-3.15092 0.79157,-1.19682 1.09393,-2.52749 0.53473,-3.6327 -0.38703,-0.76492 -1.12185,-1.26719 -1.99439,-1.51907 -0.68186,-0.19684 -1.45748,-0.253 -2.28489,-0.17714 l 0.0618,1.00003 z"
       id="path1-6-8-1-0-9"
       sodipodi:nodetypes="csssssccsssssccc" />
    <path
       style="color:#000000;fill:#732db0;-inkscape-stroke:none"
       d="m 182.35923,127.54485 c -3.15197,2.16924 -5.56834,4.75561 -6.96418,7.37527 -1.42205,2.66885 -1.78798,5.42569 -0.63323,7.70793 0.54029,1.06783 1.36929,1.93703 2.39799,2.59586 l 0.54189,-1.07829 c -0.82068,-0.54644 -1.45111,-1.23141 -1.86983,-2.05898 -0.93295,-1.84388 -0.68067,-4.15657 0.6219,-6.60119 1.25069,-2.34723 3.46758,-4.76476 6.39021,-6.81482 z m 12.67052,-3.69806 c 0.3416,-0.0406 0.67881,-0.0722 1.01097,-0.0947 1.93991,-0.13144 3.70745,0.0443 5.17057,0.50476 1.84556,0.58078 3.19083,1.59085 3.90917,3.01058 1.0804,2.13531 0.56722,4.92017 -1.31513,7.76621 -1.88235,2.84604 -5.11259,5.68192 -9.22184,7.76109 -4.41858,2.23567 -8.94019,3.13031 -12.46994,2.776 l -0.56758,1.14155 c 3.90665,0.51364 8.80276,-0.4309 13.57893,-2.84751 4.27417,-2.1626 7.65389,-5.1035 9.68109,-8.16856 2.02721,-3.06506 2.72351,-6.32813 1.38625,-8.97108 -0.88911,-1.75725 -2.55053,-2.96171 -4.6213,-3.61337 -1.80582,-0.56828 -3.93471,-0.73181 -6.23366,-0.50521 -0.30977,0.0337 -0.61587,0.0686 -0.91839,0.11119 z"
       id="path1-0-8-7"
       sodipodi:nodetypes="cssccsscccsssssccssssccc" />
  </g>
</svg>
