<?xml version="1.0" encoding="UTF-8" standalone="no"?>
<!-- Created with Inkscape (http://www.inkscape.org/) -->

<svg
   width="114.27499mm"
   height="41.393753mm"
   viewBox="0 0 114.27499 41.393753"
   version="1.1"
   id="svg1"
   inkscape:version="1.3.2 (091e20ef0f, 2023-11-25, custom)"
   sodipodi:docname="exspy-banner-dark.svg"
   xmlns:inkscape="http://www.inkscape.org/namespaces/inkscape"
   xmlns:sodipodi="http://sodipodi.sourceforge.net/DTD/sodipodi-0.dtd"
   xmlns="http://www.w3.org/2000/svg"
   xmlns:svg="http://www.w3.org/2000/svg">
  <sodipodi:namedview
     id="namedview1"
     pagecolor="#ffffff"
     bordercolor="#666666"
     borderopacity="1.0"
     inkscape:showpageshadow="2"
     inkscape:pageopacity="0.0"
     inkscape:pagecheckerboard="0"
     inkscape:deskcolor="#d1d1d1"
     inkscape:document-units="mm"
     inkscape:zoom="0.69486532"
     inkscape:cx="37.417323"
     inkscape:cy="402.95578"
     inkscape:window-width="1680"
     inkscape:window-height="1026"
     inkscape:window-x="1920"
     inkscape:window-y="0"
     inkscape:window-maximized="1"
     inkscape:current-layer="layer1" />
  <defs
     id="defs1" />
  <g
     inkscape:label="Layer 1"
     inkscape:groupmode="layer"
     id="layer1"
     transform="translate(-95.249999,-41.804156)">
    <path
       style="color:#000000;fill:#bf3844;-inkscape-stroke:none"
       d="m 186.30267,65.47342 c -1.75234,1.41712 -3.08059,3.02154 -3.84245,4.6403 -0.80828,1.71742 -0.97613,3.49141 -0.2217,4.98248 0.0137,0.0271 0.0277,0.0544 0.0419,0.0816 l 0.66368,-1.33999 c -0.22233,-0.96325 -0.0452,-2.07192 0.5122,-3.25613 0.63744,-1.35442 1.77347,-2.77427 3.29979,-4.05665 z m 10.60609,-3.22333 c 2.9799,-0.21126 5.26775,0.64934 6.11726,2.3283 0.71001,1.40327 0.37965,3.25617 -0.89247,5.17959 -1.27211,1.92341 -3.46751,3.85143 -6.26217,5.26544 -3.35958,1.69985 -6.80746,2.24765 -9.27505,1.76658 l -0.50916,1.01566 c 2.84359,0.66365 6.61286,0.0547 10.28065,-1.80107 2.94583,-1.4905 5.27825,-3.51625 6.68315,-5.64043 1.40491,-2.12417 1.90167,-4.41361 0.95621,-6.28221 -1.05674,-2.08855 -3.56727,-3.0319 -6.53947,-2.96001 l -0.79128,1.14606 z"
       id="path1-6-5-6-0-8"
       sodipodi:nodetypes="cssccscccsssccsssccc" />
    <text
       xml:space="preserve"
       style="font-style:normal;font-variant:normal;font-weight:300;font-stretch:normal;font-size:36.6889px;line-height:1.25;font-family:Nunito;-inkscape-font-specification:'Nunito Light';fill:#ffffff;stroke-width:0.264583"
       x="93.562309"
       y="68.000031"
       id="text4-3-8-3-7-6"><tspan
         sodipodi:role="line"
         id="tspan4-6-9-5-92-0"
         style="font-style:normal;font-variant:normal;font-weight:normal;font-stretch:normal;font-size:36.6889px;font-family:Nunito;-inkscape-font-specification:'Nunito Italic';fill:#ffffff;stroke-width:0.264583"
         x="93.562309"
         y="68.000031">eXSp</tspan></text>
    <g
       id="g3-6-6-0-4"
       transform="rotate(12.252226,829.14722,205.00432)"
       inkscape:transform-center-x="-0.94996498"
       inkscape:transform-center-y="-0.066505451">
      <path
         class="cls-3"
         d="m 139.10715,192.58632 c -0.38365,1.15094 -3.41833,1.21416 -4.1671,0.90195 -0.38894,-0.1614 -1.29739,-1.39284 -2.02764,-1.39284 -0.45773,0 -0.58653,-0.3399 -0.96489,-0.28699 v -0.95779 c 0.41011,-0.0291 1.16152,-0.77787 1.28852,-0.79375 1.56369,-0.0688 2.57513,-0.66111 3.33977,-0.31715 0.76465,0.34396 2.89646,1.72738 2.53134,2.84657 z"
         id="path14-8-4-2-2-8"
         style="fill:#ffffff;stroke:#ffffff;stroke-width:0.264583"
         sodipodi:nodetypes="ccscccsc" />
      <line
         class="cls-4"
         x1="138.4827"
         y1="192.20264"
         x2="140.0464"
         y2="192.68683"
         id="line14-0-3-9-3-8"
         style="fill:none;stroke:#ffffff;stroke-width:0.767292px;stroke-linecap:round;stroke-miterlimit:10" />
      <line
         class="cls-4"
         x1="141.6339"
         y1="191.77138"
         x2="140.0464"
         y2="192.68683"
         id="line15-2-3-1-7-8"
         style="fill:none;stroke:#ffffff;stroke-width:0.767292px;stroke-linecap:round;stroke-miterlimit:10" />
      <line
         class="cls-4"
         x1="141.00154"
         y1="194.26639"
         x2="140.08609"
         y2="192.68153"
         id="line16-1-3-2-5-9"
         style="fill:none;stroke:#ffffff;stroke-width:0.767292px;stroke-linecap:round;stroke-miterlimit:10" />
    </g>
    <ellipse
       style="fill:#4584bc;fill-opacity:0.870588;stroke-width:2.26743;stroke-dasharray:none"
       id="path1-6-8-8-1-4-3-8-7"
       cx="141.12616"
       cy="149.39653"
       rx="2.153666"
       ry="1.2275143"
       transform="rotate(-26.83808)" />
    <path
       style="fill:none;stroke:#ffffff;stroke-width:2.8;stroke-linecap:round;stroke-linejoin:miter;stroke-dasharray:none;stroke-opacity:1"
       d="M 188.86676,67.03781 181.534,81.79791"
       id="path3-5-8-6-9-0-7"
       sodipodi:nodetypes="cc" />
    <path
       style="fill:none;stroke:#ffffff;stroke-width:2.8;stroke-linecap:round;stroke-linejoin:miter;stroke-dasharray:none;stroke-opacity:1"
       d="M 189.19967,66.16272 182.08406,49.61619"
       id="path2-0-8-6-61-6"
       sodipodi:nodetypes="cc" />
    <path
       style="fill:none;stroke:#ffffff;stroke-width:2.6;stroke-linecap:round;stroke-linejoin:miter;stroke-dasharray:none;stroke-opacity:1"
       d="m 198.83874,49.26922 c 0,0 -2.16293,-0.0995 -2.48922,0.55285 -0.65211,1.30369 2.75273,3.33944 2.10053,4.64309 -0.65279,1.30478 -4.32641,-0.19945 -4.97928,1.10529 -0.6522,1.30342 2.75199,3.33931 2.09968,4.64267 -0.65296,1.30493 -4.32695,-0.19997 -4.98011,1.10487 -0.65212,1.30322 2.753,3.34006 2.09885,4.64224 -0.32838,0.65365 -2.4976,0.54868 -2.4976,0.54868"
       id="path1-2-4"
       sodipodi:nodetypes="cssssssc" />
    <path
       style="color:#000000;fill:#109345;-inkscape-stroke:none"
       d="m 195.14894,65.78363 c 0.6907,-0.0538 1.31604,-3.1e-4 1.82597,0.1469 0.68101,0.19659 1.14167,0.53889 1.38055,1.01102 0.34517,0.68218 0.19338,1.61537 -0.47749,2.62968 -0.67086,1.01432 -1.8441,2.05159 -3.34337,2.81018 -1.30155,0.65855 -2.62543,0.99683 -3.74752,1.03371 -0.94938,0.0312 -1.73957,-0.15899 -2.26779,-0.49899 l -0.45009,0.90044 c 0.74271,0.44965 1.70254,0.63209 2.7506,0.59765 1.29476,-0.0426 2.74542,-0.42162 4.16627,-1.14053 1.6367,-0.82812 2.93538,-1.95407 3.72695,-3.15091 0.79157,-1.19683 1.09393,-2.5275 0.53473,-3.63271 -0.38703,-0.76491 -1.12185,-1.26718 -1.99439,-1.51907 -0.68186,-0.19684 -1.45748,-0.253 -2.28489,-0.17714 l 0.0618,1.00003 z"
       id="path1-6-8-1-0-9-3"
       sodipodi:nodetypes="csssssccsssssccc" />
    <path
       style="color:#000000;fill:#732db0;-inkscape-stroke:none"
       d="m 185.00506,62.45732 c -3.15197,2.16925 -5.56834,4.75562 -6.96418,7.37528 -1.42205,2.66884 -1.78798,5.42568 -0.63323,7.70793 0.54029,1.06783 1.36929,1.93702 2.39799,2.59585 l 0.54189,-1.07828 c -0.82068,-0.54645 -1.45111,-1.23142 -1.86983,-2.05899 -0.93295,-1.84388 -0.68067,-4.15657 0.6219,-6.60118 1.25069,-2.34724 3.46758,-4.76476 6.39021,-6.81483 z m 12.67052,-3.69805 c 0.3416,-0.0406 0.67881,-0.0722 1.01097,-0.0947 1.93991,-0.13144 3.70745,0.0443 5.17057,0.50475 1.84556,0.58078 3.19083,1.59085 3.90917,3.01058 1.0804,2.13531 0.56722,4.92019 -1.31513,7.76621 -1.88235,2.84604 -5.11259,5.68194 -9.22184,7.7611 -4.41858,2.23567 -8.94019,3.13031 -12.46994,2.77599 l -0.56758,1.14156 c 3.90665,0.51364 8.80276,-0.43091 13.57893,-2.84751 4.27417,-2.16261 7.65389,-5.1035 9.68109,-8.16856 2.02721,-3.06506 2.72351,-6.32812 1.38625,-8.97108 -0.88911,-1.75725 -2.55053,-2.96172 -4.6213,-3.61336 -1.80582,-0.56829 -3.93471,-0.73181 -6.23366,-0.50522 -0.30977,0.0337 -0.61587,0.0686 -0.91839,0.11119 z"
       id="path1-0-8-7-0"
       sodipodi:nodetypes="cssccsscccsssssccssssccc" />
  </g>
</svg>
